<svg width="16" height="16" viewBox="0 0 16 16" fill="none" xmlns="http://www.w3.org/2000/svg">
<g clip-path="url(#clip0_21_1435)">
<path fill-rule="evenodd" clip-rule="evenodd" d="M4.06788 0.645671C3.77299 -0.0611171 3.46257 -0.0753504 3.18202 -0.0877513C2.95257 -0.0983195 2.68986 -0.0976477 2.4276 -0.0976477C2.16518 -0.0976477 1.73862 0.00864495 1.37796 0.43339C1.01707 0.858134 0 1.8849 0 3.97325C0 6.06185 1.41076 8.07971 1.60741 8.36316C1.80423 8.64624 4.33081 13.0686 8.332 14.7701C11.6574 16.184 12.3341 15.9028 13.0559 15.832C13.7777 15.7613 15.385 14.8054 15.713 13.8143C16.0411 12.8232 16.0411 11.9738 15.9427 11.7962C15.8442 11.6193 15.5818 11.5132 15.1881 11.3009C14.7943 11.0887 12.859 10.0616 12.4981 9.92017C12.1372 9.77869 11.8747 9.70795 11.6123 10.1329C11.3498 10.5574 10.5959 11.5132 10.3661 11.7963C10.1365 12.0799 9.90689 12.1153 9.51314 11.903C9.11945 11.6901 7.85157 11.2424 6.3475 9.7964C5.17723 8.67141 4.38724 7.28202 4.15745 6.85709C3.92782 6.43253 4.13292 6.2026 4.33036 5.99099C4.50712 5.80082 4.72411 5.49557 4.92093 5.24767C5.11735 4.99984 5.18301 4.82293 5.31422 4.53991C5.44544 4.25646 5.37983 4.00856 5.28142 3.79634C5.18301 3.58406 4.41795 1.4849 4.06788 0.645671Z" fill="white"/>
</g>
<defs>
<clipPath id="clip0_21_1435">
<rect width="16" height="16" fill="white"/>
</clipPath>
</defs>
</svg>
