<svg width="16" height="18" viewBox="0 0 16 18" fill="none" xmlns="http://www.w3.org/2000/svg">
<path fill-rule="evenodd" clip-rule="evenodd" d="M4.06788 1.74333C3.77299 1.03654 3.46257 1.02231 3.18202 1.0099C2.95257 0.999337 2.68986 1.00001 2.4276 1.00001C2.16518 1.00001 1.73862 1.1063 1.37796 1.53105C1.01707 1.95579 0 2.98256 0 5.07091C0 7.15951 1.41076 9.17737 1.60741 9.46081C1.80423 9.7439 4.33081 14.1663 8.332 15.8677C11.6574 17.2817 12.3341 17.0004 13.0559 16.9297C13.7777 16.8589 15.385 15.9031 15.713 14.9119C16.0411 13.9209 16.0411 13.0715 15.9427 12.8939C15.8442 12.717 15.5818 12.6109 15.1881 12.3986C14.7943 12.1863 12.859 11.1593 12.4981 11.0178C12.1372 10.8763 11.8747 10.8056 11.6123 11.2305C11.3498 11.6551 10.5959 12.6109 10.3661 12.894C10.1365 13.1776 9.90689 13.213 9.51314 13.0007C9.11945 12.7878 7.85157 12.34 6.3475 10.8941C5.17723 9.76906 4.38724 8.37968 4.15745 7.95475C3.92782 7.53019 4.13292 7.30026 4.33036 7.08865C4.50712 6.89848 4.72411 6.59322 4.92093 6.34533C5.11735 6.09749 5.18301 5.92058 5.31422 5.63756C5.44544 5.35411 5.37983 5.10622 5.28142 4.894C5.18301 4.68172 4.41795 2.58255 4.06788 1.74333Z" fill="black"/>
</svg>
