<svg width="52" height="97" viewBox="0 0 52 97" fill="none" xmlns="http://www.w3.org/2000/svg">
<path fill-rule="evenodd" clip-rule="evenodd" d="M26.2251 0.841309L36.78 7.37704V14.6738L46.02 19.7798V53.9073C46.968 54.8152 49.0921 56.27 51.52 56.27V58.046C49.1707 58.046 47.1224 56.9959 45.7786 56.0046C45.413 58.2199 44.8238 60.7048 43.975 63.3243C46.2526 64.6628 48.828 65.594 51.52 65.594V67.37C48.5592 67.37 45.7898 66.3929 43.3906 65.0328C42.5423 67.3876 41.4863 69.8243 40.1977 72.2504C43.4828 74.2641 47.2743 75.584 51.52 75.584V77.36C46.9163 77.36 42.837 75.9347 39.3401 73.8022C38.0516 76.0447 36.5584 78.2611 34.8409 80.3775C39.4687 83.2522 45.0084 85.13 51.52 85.13V86.906C44.5266 86.906 38.6006 84.85 33.6871 81.7446C31.8169 83.8753 29.7049 85.8818 27.331 87.6836C33.4729 91.7662 41.3945 94.454 51.52 94.454V96.23C40.7442 96.23 32.3115 93.275 25.8041 88.7884C19.3044 93.268 10.9833 96.23 0.47998 96.23V94.454C10.3146 94.454 18.1305 91.7723 24.2789 87.6828C23.3561 86.9801 22.4751 86.246 21.6347 85.4852C20.3705 84.3409 19.1993 83.1374 18.116 81.8912C13.2265 84.9144 7.36293 86.906 0.47998 86.906V85.13C6.88575 85.13 12.3655 83.3127 16.9695 80.5164C15.2997 78.4294 13.8602 76.2439 12.6281 74.0318C9.14165 76.0376 5.07985 77.36 0.47998 77.36V75.584C4.73949 75.584 8.52097 74.3574 11.7932 72.4681C10.5278 69.9941 9.51321 67.508 8.71791 65.1092C6.31153 66.4302 3.51572 67.37 0.47998 67.37V65.594C3.27527 65.594 5.89031 64.6878 8.17751 63.3807C7.40553 60.7539 6.89501 58.2571 6.60493 56.0258C5.20615 57.0156 3.0511 58.046 0.47998 58.046V56.27C3.24984 56.27 5.47331 54.7973 6.41998 53.9051V33.934L15.44 29.938V7.37121L26.2251 0.841309ZM15.44 31.8777L8.17998 35.0939V54.2334C8.38562 56.6017 8.87768 59.4005 9.72842 62.4029C12.3532 60.5908 14.3591 58.3906 15.44 56.8763V31.8777ZM16.0126 59.0226C14.6811 60.6329 12.7052 62.5727 10.266 64.1761C11.0406 66.5734 12.0397 69.0607 13.2953 71.5323C14.6314 70.6378 15.8727 69.6373 17.0168 68.5756C17.8449 67.8071 18.62 67.0083 19.3409 66.1971C17.8876 63.635 16.7831 61.167 16.0126 59.0226ZM20.2835 67.7906C19.6316 68.503 18.9397 69.204 18.2082 69.8829C16.966 71.0356 15.6055 72.128 14.1301 73.1037C15.3551 75.3101 16.7917 77.4859 18.4631 79.5552C20.6358 78.0764 22.5975 76.3826 24.354 74.574C24.5235 74.3994 24.6911 74.2238 24.8567 74.0473C23.097 72.0118 21.5753 69.8858 20.2835 67.7906ZM26.0484 72.7234C24.283 70.6616 22.7693 68.5062 21.4995 66.3951C23.5623 63.9098 25.1464 61.374 26.2281 59.2311C27.2927 61.3068 28.8223 63.7533 30.7856 66.1655C29.4711 68.3497 27.8945 70.5868 26.0484 72.7234ZM26.0429 75.3659C25.9003 75.517 25.7563 75.6674 25.611 75.817C23.824 77.6571 21.8253 79.3903 19.6102 80.9155C20.6009 82.0408 21.6661 83.1278 22.8099 84.1632C23.7532 85.0171 24.7507 85.8367 25.8051 86.6145C28.2036 84.8494 30.3285 82.8672 32.2039 80.7548C30.091 79.2683 28.181 77.5912 26.4691 75.8145C26.3256 75.6657 26.1836 75.5161 26.0429 75.3659ZM33.3576 79.4014C31.2861 77.9601 29.4125 76.3217 27.7309 74.5765C27.5635 74.4028 27.3981 74.228 27.2346 74.0523C29.0714 71.9464 30.6542 69.7436 31.9908 67.5781C32.6924 68.3622 33.4403 69.1341 34.2333 69.8792C35.3499 70.9283 36.5603 71.928 37.8609 72.8356C36.5829 75.0687 35.0957 77.2752 33.3786 79.3757C33.3716 79.3843 33.3646 79.3928 33.3576 79.4014ZM38.7187 71.2747C39.9955 68.8535 41.0335 66.423 41.8588 64.0832C41.6769 63.9607 41.4979 63.8365 41.3216 63.711C39.1953 62.197 37.437 60.455 36.207 58.9912C35.4422 61.0821 34.3564 63.483 32.9376 65.9801C33.7083 66.8671 34.5406 67.7412 35.4326 68.5793C36.4545 69.5394 37.5507 70.4487 38.7187 71.2747ZM31.7324 64.5217C33.2526 61.761 34.3431 59.1518 35.02 57.0202V16.6662L27.1 20.8438V56.9707C28.0174 59.0454 29.5807 61.7844 31.7324 64.5217ZM25.34 56.9751C24.4216 59.1062 22.8123 61.9421 20.5565 64.7566C18.9909 61.9102 17.8788 59.2144 17.2 57.0234V31.8296L25.34 35.1152V56.9751ZM25.34 33.2024V3.44837L17.2 8.37677V29.9168L25.34 33.2024ZM27.1 3.46676V18.8398L35.02 14.6622V8.37094L27.1 3.46676ZM36.78 16.6987V56.8688C37.8672 58.3452 39.8268 60.473 42.3363 62.2599C42.3715 62.285 42.4067 62.3099 42.442 62.3347C43.3782 59.3589 43.9652 56.5794 44.26 54.2167V20.8321L36.78 16.6987Z" fill="white"/>
</svg>
