<svg width="66" height="111" viewBox="0 0 66 111" fill="none" xmlns="http://www.w3.org/2000/svg">
<path d="M14.5199 41.5139L23.7599 37.9619V63.9359C27.4999 74.8139 36.2999 84.1379 40.4799 87.4679C38.3532 89.7619 33.8359 94.5719 32.7799 94.5719C13.2439 81.4295 12.4665 53.7239 14.5199 41.5139Z" fill="#E31E24"/>
<path d="M23.3198 15.0959L33.2198 8.87988C33.2198 25.2339 33.6598 59.1407 33.6598 63.9359C33.6598 68.7311 42.4598 75.7019 45.9798 79.4759C44.5132 81.5479 41.3598 86.2247 40.4798 87.4679C32.2078 83.7383 25.6665 70.2259 23.3198 63.9359V15.0959Z" fill="#F08143"/>
<path d="M33 26.8619L42.9 22.4219L43.12 64.8239L50.16 70.5959C49.2067 72.5939 47.036 77.1671 45.98 79.4759C38.94 75.0359 34.6867 67.8579 33.44 64.8239L33 26.8619Z" fill="#FECC00"/>
<path fill-rule="evenodd" clip-rule="evenodd" d="M33.2251 7.84131L43.78 14.377V21.6738L53.02 26.7798V60.9073C53.968 61.8152 56.0921 63.27 58.52 63.27V65.046C56.1707 65.046 54.1224 63.9959 52.7786 63.0046C52.413 65.2199 51.8238 67.7048 50.975 70.3243C53.2526 71.6628 55.828 72.594 58.52 72.594V74.37C55.5592 74.37 52.7898 73.3929 50.3906 72.0328C49.5423 74.3876 48.4863 76.8243 47.1977 79.2504C50.4828 81.2641 54.2743 82.584 58.52 82.584V84.36C53.9163 84.36 49.837 82.9347 46.3401 80.8022C45.0516 83.0447 43.5584 85.2611 41.8409 87.3775C46.4687 90.2522 52.0084 92.13 58.52 92.13V93.906C51.5266 93.906 45.6006 91.85 40.6871 88.7446C38.8169 90.8753 36.7049 92.8818 34.331 94.6836C40.4729 98.7662 48.3945 101.454 58.52 101.454V103.23C47.7442 103.23 39.3115 100.275 32.8041 95.7884C26.3044 100.268 17.9833 103.23 7.47998 103.23V101.454C17.3146 101.454 25.1305 98.7723 31.2789 94.6828C30.3561 93.9801 29.4751 93.246 28.6347 92.4852C27.3705 91.3409 26.1993 90.1374 25.116 88.8912C20.2265 91.9144 14.3629 93.906 7.47998 93.906V92.13C13.8858 92.13 19.3655 90.3127 23.9695 87.5164C22.2997 85.4294 20.8602 83.2439 19.6281 81.0318C16.1417 83.0376 12.0799 84.36 7.47998 84.36V82.584C11.7395 82.584 15.521 81.3574 18.7932 79.4681C17.5278 76.9941 16.5132 74.508 15.7179 72.1092C13.3115 73.4302 10.5157 74.37 7.47998 74.37V72.594C10.2753 72.594 12.8903 71.6878 15.1775 70.3807C14.4055 67.7539 13.895 65.2571 13.6049 63.0258C12.2061 64.0156 10.0511 65.046 7.47998 65.046V63.27C10.2498 63.27 12.4733 61.7973 13.42 60.9051V40.934L22.44 36.938V14.3712L33.2251 7.84131ZM22.44 38.8777L15.18 42.0939V61.2334C15.3856 63.6017 15.8777 66.4005 16.7284 69.4029C19.3532 67.5908 21.3591 65.3906 22.44 63.8763V38.8777ZM23.0126 66.0226C21.6811 67.6329 19.7052 69.5727 17.266 71.1761C18.0406 73.5734 19.0397 76.0607 20.2953 78.5323C21.6314 77.6378 22.8727 76.6373 24.0168 75.5756C24.8449 74.8071 25.62 74.0083 26.3409 73.1971C24.8876 70.635 23.7831 68.167 23.0126 66.0226ZM27.2835 74.7906C26.6316 75.503 25.9397 76.204 25.2082 76.8829C23.966 78.0356 22.6055 79.128 21.1301 80.1037C22.3551 82.3101 23.7917 84.4859 25.4631 86.5552C27.6358 85.0764 29.5975 83.3826 31.354 81.574C31.5235 81.3994 31.6911 81.2238 31.8567 81.0473C30.097 79.0118 28.5753 76.8858 27.2835 74.7906ZM33.0484 79.7234C31.283 77.6616 29.7693 75.5062 28.4995 73.3951C30.5623 70.9098 32.1464 68.374 33.2281 66.2311C34.2927 68.3068 35.8223 70.7533 37.7856 73.1655C36.4711 75.3497 34.8945 77.5868 33.0484 79.7234ZM33.0429 82.3659C32.9003 82.517 32.7563 82.6674 32.611 82.817C30.824 84.6571 28.8253 86.3903 26.6102 87.9155C27.6009 89.0408 28.6661 90.1278 29.8099 91.1632C30.7532 92.0171 31.7507 92.8367 32.8051 93.6145C35.2036 91.8494 37.3285 89.8672 39.2039 87.7548C37.091 86.2683 35.181 84.5912 33.4691 82.8145C33.3256 82.6657 33.1836 82.5161 33.0429 82.3659ZM40.3576 86.4014C38.2861 84.9601 36.4125 83.3217 34.7309 81.5765C34.5635 81.4028 34.3981 81.228 34.2346 81.0523C36.0714 78.9464 37.6542 76.7436 38.9908 74.5781C39.6924 75.3622 40.4403 76.1341 41.2333 76.8792C42.3499 77.9283 43.5603 78.928 44.8609 79.8356C43.5829 82.0687 42.0957 84.2752 40.3786 86.3757C40.3716 86.3843 40.3646 86.3928 40.3576 86.4014ZM45.7187 78.2747C46.9955 75.8535 48.0335 73.423 48.8588 71.0832C48.6769 70.9607 48.4979 70.8365 48.3216 70.711C46.1953 69.197 44.437 67.455 43.207 65.9912C42.4422 68.0821 41.3564 70.483 39.9376 72.9801C40.7083 73.8671 41.5406 74.7412 42.4326 75.5793C43.4545 76.5394 44.5507 77.4487 45.7187 78.2747ZM38.7324 71.5217C40.2526 68.761 41.3431 66.1518 42.02 64.0202V23.6662L34.1 27.8438V63.9707C35.0174 66.0454 36.5807 68.7844 38.7324 71.5217ZM32.34 63.9751C31.4216 66.1062 29.8123 68.9421 27.5565 71.7566C25.9909 68.9102 24.8788 66.2144 24.2 64.0234V38.8296L32.34 42.1152V63.9751ZM32.34 40.2024V10.4484L24.2 15.3768V36.9168L32.34 40.2024ZM34.1 10.4668V25.8398L42.02 21.6622V15.3709L34.1 10.4668ZM43.78 23.6987V63.8688C44.8672 65.3452 46.8268 67.473 49.3363 69.2599C49.3715 69.285 49.4067 69.3099 49.442 69.3347C50.3782 66.3589 50.9652 63.5794 51.26 61.2167V27.8321L43.78 23.6987Z" fill="black"/>
</svg>
