<svg width="54" height="90" viewBox="0 0 54 90" fill="none" xmlns="http://www.w3.org/2000/svg">
<path d="M11.88 33.6593L19.44 30.7793V51.8393C22.5 60.6593 29.7 68.2193 33.12 70.9193C31.38 72.7793 27.684 76.6793 26.82 76.6793C10.836 66.0233 10.2 43.5593 11.88 33.6593Z" fill="#BBBBBB"/>
<path d="M19.0798 12.2392L27.1798 7.19922C27.1798 20.4592 27.5398 47.9512 27.5398 51.8392C27.5398 55.7272 34.7398 61.3792 37.6198 64.4392C36.4198 66.1192 33.8398 69.9112 33.1198 70.9192C26.3518 67.8952 20.9998 56.9392 19.0798 51.8392V12.2392Z" fill="#BBBBBB"/>
<path fill-rule="evenodd" clip-rule="evenodd" d="M27.1841 6.35742L35.8199 11.6567V17.573L43.3799 21.713V49.3839C44.1555 50.1201 45.8934 51.2996 47.8799 51.2996V52.7396C45.9577 52.7396 44.2818 51.8882 43.1824 51.0844C42.8833 52.8806 42.4012 54.8954 41.7067 57.0193C43.5702 58.1046 45.6773 58.8596 47.8799 58.8596V60.2996C45.4574 60.2996 43.1915 59.5074 41.2285 58.4046C40.5345 60.3138 39.6705 62.2896 38.6162 64.2567C41.304 65.8894 44.4061 66.9596 47.8799 66.9596V68.3996C44.1132 68.3996 40.7756 67.2439 37.9146 65.5149C36.8603 67.3332 35.6386 69.1302 34.2333 70.8462C38.0197 73.1771 42.5522 74.6996 47.8799 74.6996V76.1396C42.158 76.1396 37.3095 74.4726 33.2893 71.9547C31.7592 73.6823 30.0312 75.3092 28.0889 76.7701C33.1141 80.0803 39.5954 82.2596 47.8799 82.2596V83.6996C39.0634 83.6996 32.1639 81.3037 26.8396 77.6659C21.5217 81.2979 14.7135 83.6996 6.11987 83.6996V82.2596C14.1664 82.2596 20.5612 80.0852 25.5917 76.7694C24.8367 76.1997 24.1159 75.6045 23.4283 74.9876C22.3939 74.0598 21.4357 73.084 20.5494 72.0736C16.5488 74.5248 11.7514 76.1396 6.11987 76.1396V74.6996C11.361 74.6996 15.8444 73.2261 19.6113 70.9589C18.2451 69.2667 17.0673 67.4947 16.0593 65.7011C13.2067 67.3274 9.8834 68.3996 6.11987 68.3996V66.9596C9.60493 66.9596 12.6989 65.9651 15.3761 64.4332C14.3408 62.4272 13.5107 60.4115 12.86 58.4665C10.8911 59.5376 8.60366 60.2996 6.11987 60.2996V58.8596C8.40692 58.8596 10.5465 58.1248 12.4179 57.065C11.7862 54.9352 11.3685 52.9108 11.1312 51.1016C9.98674 51.9042 8.22351 52.7396 6.11987 52.7396V51.2996C8.38612 51.2996 10.2053 50.1055 10.9799 49.3821V33.1894L18.3599 29.9494V11.6519L27.1841 6.35742ZM18.3599 31.522L12.4199 34.1298V49.6483C12.5881 51.5685 12.9907 53.8378 13.6868 56.2722C15.8343 54.8029 17.4755 53.019 18.3599 51.7912V31.522ZM18.8284 53.5314C17.739 54.8371 16.1224 56.4099 14.1266 57.7099C14.7604 59.6537 15.5778 61.6704 16.6051 63.6745C17.6983 62.9492 18.7139 62.138 19.65 61.2771C20.3275 60.654 20.9617 60.0063 21.5515 59.3486C20.3625 57.2712 19.4588 55.2701 18.8284 53.5314ZM22.3228 60.6406C21.7894 61.2182 21.2232 61.7866 20.6248 62.3371C19.6084 63.2717 18.4953 64.1575 17.2882 64.9486C18.2904 66.7375 19.4658 68.5017 20.8334 70.1795C22.611 68.9805 24.216 67.6071 25.6531 66.1406C25.7918 65.9991 25.9289 65.8568 26.0644 65.7136C24.6247 64.0632 23.3796 62.3394 22.3228 60.6406ZM27.0395 64.6402C25.595 62.9685 24.3566 61.2208 23.3176 59.5092C25.0054 57.4941 26.3015 55.438 27.1865 53.7005C28.0575 55.3835 29.309 57.3672 30.9154 59.323C29.8398 61.094 28.55 62.9078 27.0395 64.6402ZM27.035 66.7828C26.9183 66.9053 26.8005 67.0272 26.6816 67.1485C25.2195 68.6404 23.5843 70.0458 21.7719 71.2824C22.5824 72.1949 23.454 73.0762 24.3898 73.9157C25.1616 74.6081 25.9778 75.2726 26.8404 75.9032C28.8028 74.4721 30.5414 72.8649 32.0758 71.1521C30.347 69.9469 28.7843 68.5871 27.3837 67.1465C27.2663 67.0258 27.1501 66.9046 27.035 66.7828ZM33.0197 70.0548C31.3249 68.8861 29.792 67.5577 28.4161 66.1427C28.2791 66.0018 28.1438 65.8602 28.01 65.7177C29.5128 64.0102 30.8079 62.2241 31.9015 60.4683C32.4755 61.1041 33.0874 61.7299 33.7362 62.334C34.6498 63.1847 35.6401 63.9953 36.7043 64.7312C35.6586 66.5418 34.4418 68.3308 33.0369 70.0339C33.0312 70.0409 33.0255 70.0478 33.0197 70.0548ZM37.4061 63.4656C38.4507 61.5025 39.3001 59.5317 39.9752 57.6346C39.8265 57.5353 39.68 57.4346 39.5358 57.3329C37.7961 56.1053 36.3574 54.6928 35.3511 53.506C34.7253 55.2013 33.837 57.148 32.6761 59.1727C33.3067 59.8918 33.9877 60.6006 34.7175 61.2801C35.5536 62.0586 36.4505 62.7959 37.4061 63.4656ZM31.6901 57.9902C32.9338 55.7517 33.826 53.6362 34.3799 51.9079V19.1884L27.8999 22.5757V51.8677C28.6505 53.5499 29.9296 55.7707 31.6901 57.9902ZM26.4599 51.8713C25.7084 53.5992 24.3918 55.8986 22.5461 58.1806C21.2652 55.8727 20.3553 53.687 19.7999 51.9105V31.4831L26.4599 34.1471V51.8713ZM26.4599 32.5961V8.47125L19.7999 12.4673V29.9321L26.4599 32.5961ZM27.8999 8.48617V20.9508L34.3799 17.5635V12.4625L27.8999 8.48617ZM35.8199 19.2148V51.7851C36.7094 52.9822 38.3127 54.7074 40.366 56.1563C40.3947 56.1766 40.4235 56.1968 40.4524 56.217C41.2184 53.8041 41.6987 51.5504 41.9399 49.6347V22.5662L35.8199 19.2148Z" fill="black"/>
</svg>
