<svg width="20" height="20" viewBox="0 0 20 20" fill="none" xmlns="http://www.w3.org/2000/svg">
<path fill-rule="evenodd" clip-rule="evenodd" d="M1.66675 9.99935C1.66675 9.53911 2.03984 9.16602 2.50008 9.16602H17.5001C17.9603 9.16602 18.3334 9.53911 18.3334 9.99935C18.3334 10.4596 17.9603 10.8327 17.5001 10.8327H2.50008C2.03984 10.8327 1.66675 10.4596 1.66675 9.99935Z" fill="black"/>
<path fill-rule="evenodd" clip-rule="evenodd" d="M1.66675 4.99935C1.66675 4.53911 2.03984 4.16602 2.50008 4.16602H17.5001C17.9603 4.16602 18.3334 4.53911 18.3334 4.99935C18.3334 5.45959 17.9603 5.83268 17.5001 5.83268H2.50008C2.03984 5.83268 1.66675 5.45959 1.66675 4.99935Z" fill="black"/>
<path fill-rule="evenodd" clip-rule="evenodd" d="M1.66675 14.9993C1.66675 14.5391 2.03984 14.166 2.50008 14.166H17.5001C17.9603 14.166 18.3334 14.5391 18.3334 14.9993C18.3334 15.4596 17.9603 15.8327 17.5001 15.8327H2.50008C2.03984 15.8327 1.66675 15.4596 1.66675 14.9993Z" fill="black"/>
</svg>
